{"title":"UFC 166 - Facebook Prelims 2013.10.19(Complete) - P2PDL","uid":9073537,"size":1626753402,"categoryP":"video","categoryS":"tv_shows","magnet":"?xt=urn:btih:bf75b7a24a640105c1f0737e8859d173c54039df&amp;dn=UFC+166+-+Facebook+Prelims+2013.10.19%28Complete%29+-+P2PDL&amp;tr=udp%3A%2F%2Ftracker.openbittorrent.com%3A80&amp;tr=udp%3A%2F%2Fopen.demonii.com%3A1337&amp;tr=udp%3A%2F%2Ftracker.coppersurfer.tk%3A6969&amp;tr=udp%3A%2F%2Fexodus.desync.com%3A6969","seeders":2,"leechers":0,"uploader":"TeX","files":1,"time":1382243682,"description":"TJ Waldburger vs Adlan Amagov\nTony Ferguson vs Mike Rio\nJeremy Larsen vs Andre Fili\nDustin Pague vs Kyoji Horiguchi\n\nFormat : AVI\nFormat/Info : Audio Video Interleave\nFile size : 1.52 GiB\nDuration : 1h 29mn\nOverall bit rate : 2 437 Kbps\nWriting library : VirtualDub build 32842/release\n\nVideo\nID : 0\nFormat : AVC\nFormat/Info : Advanced Video Codec\nFormat profile : &lt;a class=&quot;__cf_email__&quot; href=&quot;/cdn-cgi/l/email-protection&quot; data-cfemail=&quot;4c04252b240c007f627c&quot;&gt;[email&amp;#160;protected]&lt;/a&gt;&lt;script cf-hash='f9e31' type=&quot;text/javascript&quot;&gt;\n/* &lt;![CDATA[ */!function(){try{var t=&quot;currentScript&quot;in document?document.currentScript:function(){for(var t=document.getElementsByTagName(&quot;script&quot;),e=t.length;e--;)if(t[e].getAttribute(&quot;cf-hash&quot;))return t[e]}();if(t&amp;&amp;t.previousSibling){var e,r,n,i,c=t.previousSibling,a=c.getAttribute(&quot;data-cfemail&quot;);if(a){for(e=&quot;&quot;,r=parseInt(a.substr(0,2),16),n=2;a.length-n;n+=2)i=parseInt(a.substr(n,2),16)^r,e+=String.fromCharCode(i);e=document.createTextNode(e),c.parentNode.replaceChild(e,c)}}}catch(u){}}();/* ]]&gt; */&lt;/script&gt;\nFormat settings, CABAC : Yes\nFormat settings, ReFrames : 3 frames\nCodec ID : H264\nDuration : 1h 29mn\nBit rate : 2 233 Kbps\nWidth : 652 pixels\nHeight : 366 pixels\nDisplay aspect ratio : 16:9\nFrame rate : 30.000 fps\nColor space : YUV\nChroma subsampling : 4:2:0\nBit depth : 8 bits\nScan type : Progressive\nBits/(Pixel*Frame) : 0.312\nStream size : 1.39 GiB (92%)\nWriting library : x264 core 130 r2274bm c832fe9\nEncoding settings : cabac=1 // deblock=1:0:0 / analyse=0x3:0x113 / me=hex / subme=7 / psy=1 / psy_rd=1.00:0.00 // me_range=16 / chroma_me=1 / trellis=1 / 8x8dct=1 / cqm=0 / deadzone=21,11 / fast_pskip=1 / chroma_qp_offset=-2 / threads=4 / lookahead_threads=4 / sliced_threads=1 / slices=4 / nr=0 / decimate=1 / interlaced=0 / bluray_compat=0 / constrained_intra=0 / bframes=0 / weightp=2 / keyint=250 / keyint_min=25 / scenecut=40 / intra_refresh=0 / rc=crf / mbtree=0 / crf=19.0 / qcomp=0.60 / qpmin=0 / qpmax=69 / qpstep=4 / ip_ratio=1.40 / aq=1:1.00\n\nAudio\nID : 1\nFormat : MPEG Audio\nFormat version : Version 1\nFormat profile : Layer 3\nMode : Joint stereo\nMode extension : MS Stereo\nCodec ID : 55\nCodec ID/Hint : MP3\nDuration : 1h 29mn\nBit rate mode : Constant\nBit rate : 192 Kbps\nChannel(s) : 2 channels\nSampling rate : 48.0 KHz\nCompression mode : Lossy\nStream size : 122 MiB (8%)\nAlignment : Split accross interleaves\nInterleave, duration : 33 ms (1.00 video frame)\nInterleave, preload duration : 500 ms","torrent":{"xt":"urn:btih:bf75b7a24a640105c1f0737e8859d173c54039df","amp;dn":"UFC+166+-+Facebook+Prelims+2013.10.19%28Complete%29+-+P2PDL","amp;tr":["udp%3A%2F%2Ftracker.openbittorrent.com%3A80","udp%3A%2F%2Fopen.demonii.com%3A1337","udp%3A%2F%2Ftracker.coppersurfer.tk%3A6969","udp%3A%2F%2Fexodus.desync.com%3A6969"],"infoHash":"bf75b7a24a640105c1f0737e8859d173c54039df","infoHashBuffer":{"type":"Buffer","data":[191,117,183,162,74,100,1,5,193,240,115,126,136,89,209,115,197,64,57,223]},"announce":[],"urlList":[]}}